<svg version="1.1" id="my-icon" xmlns="http://www.w3.org/2000/svg" xmlns:xlink="http://www.w3.org/1999/xlink" x="0px" y="0px"
	 viewBox="0 0 640 640" style="enable-background:new 0 0 640 640;" xml:space="preserve">

<defs>
<path d="M216.69 390.09C212.83 383.42 210.55 375.95 210.02 368.26C206.14 311.69 195.22 152.32 191.32 95.41C190.95 90.02 195.23 85.44 200.64 85.44C234.91 85.44 298.52 85.44 371.97 85.44C399.64 85.44 416.89 66.03 457.82 56.59C481.61 51.1 504.23 48.18 525.66 47.82C530.83 47.74 534.77 52.42 533.81 57.51C532.64 63.69 530.87 73 529.67 79.33C528.65 84.7 524.16 88.72 518.72 89.13C500.49 90.5 491.44 92.14 491.54 94.04C491.61 95.19 492.64 105.88 489.72 116.16C487.77 123.01 484.48 129.34 479.84 135.15C471.54 260.92 466.35 339.53 464.27 370.97C463.6 381.22 460.05 391.08 454.04 399.42C454.04 399.42 454.04 399.42 454.04 399.42C453.37 429.01 452.96 447.5 452.79 454.9C452.66 460.5 448.17 465.02 442.57 465.17C412.83 465.98 330.8 468.22 300.36 469.05C296.05 469.17 291.75 468.96 287.48 468.42C273.82 466.71 242.06 462.73 229.1 461.1C223.44 460.39 219.18 455.57 219.18 449.86C219.18 438.77 219.18 413.72 219.18 402.19C219.18 397.09 217.84 392.07 215.28 387.65C214.39 386.11 217.19 390.95 216.69 390.09Z" id="c2U5Zrsw8w">
</path>
<path d="M295.97 468.47C380.41 466.54 433.18 465.34 454.29 464.86C455.3 464.84 456.18 465.55 456.37 466.54C457.07 470.22 458.95 480.2 459.68 484.04C459.77 484.53 459.43 485 458.94 485.06C436.83 487.77 381.54 494.54 293.07 505.38C249.86 492.62 222.85 484.64 212.04 481.45C208.27 480.33 206.03 476.45 206.96 472.63C207.6 469.97 208.72 465.37 209.57 461.85C209.92 460.41 211.28 459.45 212.75 459.6C223.85 460.79 251.59 463.74 295.97 468.47Z" id="i3RDOj931Z">
</path>
<path d="M166.89 544.61C176.92 509.89 183.18 488.19 185.68 479.51C186.65 476.18 189.9 474.06 193.34 474.54C207.72 476.52 243.69 481.49 301.23 489.43L293.98 565.2L293.98 640C232.89 622.59 194.71 611.71 179.44 607.36C173.64 605.71 169.54 600.53 169.25 594.51C168.94 587.86 168.15 571.22 166.89 544.61Z" id="c2sIZlKx2W">
</path>
<path d="M290.89 560.09L301.4 489.03C396.4 485.55 455.78 483.38 479.53 482.51C482.53 482.4 485.23 484.34 486.07 487.22C491.69 506.39 506.61 557.26 512.11 575.99C513.48 580.68 514.12 585.55 514.02 590.43C513.85 598.19 513.55 612 513.39 619.24C513.27 624.87 508.82 629.45 503.19 629.72C475.28 631.09 405.52 634.52 293.89 640L290.89 560.09Z" id="bfG5xaWo7">
</path>
<path d="M418.97 532.92C422.57 537.25 423.06 546.18 423.06 552.25C423.06 566.05 411.86 577.25 398.06 577.25C384.26 577.25 373.06 566.05 373.06 552.25C373.06 538.45 384.26 527.25 398.06 527.25C405.79 527.25 414.38 527.41 418.97 532.92Z" id="g2yrymhXOo">
</path>
<path d="M433.21 554C433.21 567.8 422.01 579 408.21 579C394.41 579 383.21 567.8 383.21 554C383.21 540.21 394.41 529 408.21 529C422.01 529 433.21 540.21 433.21 554Z" id="b12UAeOkyt">
</path>
<path d="M216.76 187.3L222.63 187.3C238.04 281.42 247.4 331.8 250.72 338.45C255.93 348.86 268.08 363.32 287.17 381.82C288.4 383.01 287.48 385.09 285.78 384.98C275.92 384.34 251.36 382.76 241.5 382.12C238.62 381.94 236.3 379.7 236.01 376.83C233.44 351.56 227.03 288.38 216.76 187.3Z" id="a49MTxQqs">
</path>
<path d="M453.18 187.3L447.32 187.3C431.91 281.42 422.55 331.8 419.22 338.45C414.02 348.86 401.87 363.32 382.77 381.82C381.55 383.01 382.47 385.09 384.17 384.98C394.03 384.34 418.59 382.76 428.44 382.12C431.32 381.94 433.65 379.7 433.94 376.83C436.5 351.56 442.92 288.38 453.18 187.3Z" id="aqxUDXPrc">
</path>
<path d="M192.3 37.62C196.99 24.4 202.88 15.76 209.97 11.72C220.59 5.66 284.42 4.96 343.42 5.08C402.42 5.21 464.8 12.39 470.8 15.87C473.08 17.2 478.44 24.44 486.87 37.62C489.08 45.54 490.34 56.72 490.66 71.18C490.92 82.93 490.51 97.33 489.43 114.4C489.07 120.09 484.51 124.61 478.82 124.93C433.2 127.48 387.36 128.98 341.29 129.45C295.19 129.91 248.86 129.34 202.29 127.72C196.72 127.53 192.3 122.95 192.3 117.37C192.3 106.74 192.3 80.16 192.3 37.62Z" id="aprdoQjuX">
</path>
<path d="M114.99 210.52C115.36 183.45 117.04 157.27 120.03 131.96C120.8 125.42 123.03 119.14 126.54 113.57C132.75 103.76 140.63 95.49 150.2 88.76C162.57 80.07 177.64 73.78 195.42 69.87L195.42 122.02C181.98 126.07 173.59 128.6 170.23 129.61C168.44 130.15 167.24 131.82 167.3 133.68C168.28 165.18 167.41 194.98 164.67 223.07C162.18 248.66 158.15 272.74 152.59 295.32C151.19 301.02 146.07 305.02 140.2 305.02C135.9 305.02 133 305.02 128.7 305.02C123.05 305.02 118.35 300.69 117.91 295.06C115.59 265.97 114.62 237.79 114.99 210.52Z" id="g14kqXdlTQ">
</path>
<path d="M302.31 437.86C378.12 435.81 425.5 434.52 444.45 434.01C447.11 433.94 449.3 436.07 449.3 438.73C449.3 445.23 449.3 458.57 449.3 464.74C449.3 468.34 446.43 471.29 442.83 471.39C415.45 472.16 343.67 474.16 317.26 474.9C309.7 475.11 302.14 474.71 294.65 473.69C279.98 471.69 242.1 466.54 226.15 464.37C223.41 464 221.41 461.59 221.56 458.83C221.87 452.77 222.7 436.74 223.04 429.99C223.08 429.21 223.78 428.62 224.56 428.71C234.92 429.93 260.84 432.98 302.31 437.86Z" id="e19qoGPIJB">
</path>
<path d="M470.15 125.91C472.94 125.89 475.15 128.24 474.96 131.02C471.68 180.41 462.37 320.7 459.14 369.41C458.76 375.06 457.06 380.53 454.16 385.39C453.19 387.02 455.04 383.91 454.16 385.39C450.98 390.73 449.3 396.82 449.3 403.04C449.3 407.17 449.3 417.5 449.3 434.03L301.23 438.4L223.91 428.71C223.91 420.03 223.91 414.6 223.91 412.43C223.91 401.27 221.85 390.21 217.83 379.8C217.02 377.72 219.04 382.95 217.83 379.8C215.16 372.89 213.55 365.62 213.06 358.23C209.97 312.06 200.93 176.94 197.71 128.83C197.66 128.04 198.28 127.38 199.07 127.37C254.31 127.07 415.64 126.2 470.15 125.91Z" id="bUgtoKHb">
</path>
</defs>

<defs>
  <radialGradient id="rg1" cx="0.474" cy="0.472" r="50%">
    <stop offset="5%" style="stop-color:#FC49F5;"/>
    <stop offset="15%" style="stop-color:#FC4EA7;"/>
    <stop offset="30%" style="stop-color:#FD5258;"/>
    <stop offset="40%" style="stop-color:#FECE7A;"/>
    <stop offset="75%" style="stop-color:#7EFF7A;"/>
    <stop offset="90%" style="stop-color:#7EFFFF;"/>
    <stop offset="100%" style="stop-color:#7BA3FE;"/>
  </radialGradient>
</defs>

<mask id="blending">
  <use xlink:href="#bUgtoKHb" opacity="1" fill="#FFFFFF" fill-opacity="1"></use>
</mask>

<g>


<g mask="url(#blending)">
  <g id="spirals" transform="translate(330,380) rotate(-1170)" style="fill:none;stroke-width:79px;stroke-linecap:round;">
    <path id="spiral1" class="sprial" style="stroke:url(#rg1);" d="M0,0C3.36,0.06,6.6,-2.82,7.07,-7.07C7.66,-11.26,5.28,-16.67,0,-20C-5.18,-23.4,-13.27,-24.43,-21.21,-21.21C-29.13,-18.12,-36.69,-10.51,-40,0C-43.42,10.46,-42.3,23.68,-35.36,35.36C-28.53,47,-15.79,56.71,0,60C15.69,63.43,34.14,60.2,49.5,49.5C64.88,38.98,76.71,21.03,80,0C83.43,-20.92,78.08,-44.6,63.64,-63.64C49.44,-82.74,26.27,-96.74,0,-100C-26.16,-103.45,-55.05,-95.94,-77.78,-77.78C-100.6,-59.88,-116.76,-31.53,-120,0C-123.48,31.43,-113.8,65.49,-91.92,91.92C-70.34,118.47,-36.76,136.79,0,140C36.66,143.5,75.94,131.67,106.07,106.07C136.34,80.79,156.81,42,160,0C163.53,-41.9,149.54,-86.4,120.21,-120.21C91.24,-154.2,47.24,-176.83,0,-180C-47.13,-183.56,-96.85,-167.4,-134.35,-134.35C-172.06,-101.7,-196.86,-52.47,-200,0C-203.55,52.4,-185.28,107.29,-148.49,148.49C-112.14,189.9,-57.74,216.9,0,220C57.63,223.58,117.75,203.14,162.63,162.63C207.77,122.6,236.92,62.97,240,0C243.62,-62.86,220.98,-128.21,176.78,-176.78C133.05,-225.63,68.21,-256.95,0,-260C-68.13,-263.64,-138.65,-238.85,-190.92,-190.92C-243.49,-143.49,-276.98,-73.47,-280,0C-283.66,73.36,-256.71,149.1,-205.06,205.06C-153.94,261.36,-78.71,297,0,300C78.6,303.69,159.56,274.58,219.2,219.2C279.23,164.4,317.02,83.94,320,0C323.72,-83.84,292.44,-170.01,233.35,-233.35C174.84,-297.12,89.21,-337.04,0,-340C-89.07,-343.71,-180.46,-310.32,-247.49,-247.49C-315,-185.31,-357.03,-94.41,-360,0C-363.74,94.33,-328.18,190.91,-261.63,261.63C-195.75,332.86,-99.67,377.06,0,380C99.57,383.76,201.36,346.05,275.77,275.77C350.73,206.2,397.08,104.91,400,0"/>
   </g>
</g>

<!-- glass -->
<use xlink:href="#c2U5Zrsw8w" opacity="1" fill="#c7dcfc" fill-opacity=".2"></use>

<!-- base -->
<use xlink:href="#e19qoGPIJB" opacity="1" fill="#212429" fill-opacity="1"></use>

<!-- adapter -->
<use xlink:href="#i3RDOj931Z" opacity="1" fill="#385675" fill-opacity="1"></use>

<!-- bottom side -->
<use xlink:href="#c2sIZlKx2W" opacity="1" fill="#517ca8" fill-opacity="1"></use>

<!-- bottom front -->
<use xlink:href="#bfG5xaWo7" opacity="1" fill="#74b4f7" fill-opacity="1"></use>

<use xlink:href="#g2yrymhXOo" opacity="1" fill="#263040" fill-opacity="1"></use>
<use xlink:href="#b12UAeOkyt" opacity="1" fill="#ff1cce" fill-opacity="1"></use>


<!-- reflect -->
<use xlink:href="#a49MTxQqs" opacity="1" fill="#edf4ff" fill-opacity=".6"></use>

<!-- reflect -->
<use xlink:href="#aqxUDXPrc" opacity="1" fill="#edf4ff" fill-opacity=".6"></use>

<!-- lid -->
<use xlink:href="#aprdoQjuX" opacity="1" fill="#263040" fill-opacity="1"></use>

<!-- handle -->
<use xlink:href="#g14kqXdlTQ" opacity="1" fill="#263040" fill-opacity="1"></use>

</g>
</svg>
